HIERARCHY
ROOT newVegas:Hips
{
	OFFSET 0.000000 96.479958 0.000000
	CHANNELS 6 Xposition Yposition Zposition Xrotation Yrotation Zrotation
	JOINT newVegas:Pelvis
	{
		OFFSET 0.000000 0.000000 0.000000
		CHANNELS 3 Xrotation Yrotation Zrotation
		JOINT newVegas:LeftUpLeg
		{
			OFFSET 18.735201 -5.666702 -4.541200
			CHANNELS 3 Xrotation Yrotation Zrotation
			JOINT newVegas:LeftLeg
			{
				OFFSET -0.021200 -31.938179 0.493100
				CHANNELS 3 Xrotation Yrotation Zrotation
				JOINT newVegas:LeftFoot
				{
					OFFSET 0.021200 -31.938179 -4.336299
					CHANNELS 3 Xrotation Yrotation Zrotation
					JOINT newVegas:LeftToeBase
					{
						OFFSET 0.943001 -26.722000 15.023500
						CHANNELS 3 Xrotation Yrotation Zrotation
						End Site
						{
							OFFSET 0.000000 30.670183 0.000000
						}
					}
				}
				JOINT newVegas:Left_PantLeg
				{
					OFFSET 0.663870 -9.044666 -1.108900
					CHANNELS 3 Xrotation Yrotation Zrotation
					End Site
					{
						OFFSET 1.415995 20.635357 0.000000
					}
				}
			}
		}
		JOINT newVegas:RightUpLeg
		{
			OFFSET -18.735201 -5.666702 -4.541200
			CHANNELS 3 Xrotation Yrotation Zrotation
			JOINT newVegas:RightLeg
			{
				OFFSET 0.018946 -31.938133 0.493100
				CHANNELS 3 Xrotation Yrotation Zrotation
				JOINT newVegas:RightFoot
				{
					OFFSET -0.018946 -31.938126 -4.336299
					CHANNELS 3 Xrotation Yrotation Zrotation
					JOINT newVegas:RightToeBase
					{
						OFFSET -0.943001 -26.722004 15.023500
						CHANNELS 3 Xrotation Yrotation Zrotation
						End Site
						{
							OFFSET 0.000000 30.670187 0.000000
						}
					}
				}
				JOINT newVegas:Right_PantLeg
				{
					OFFSET -0.661674 -9.044716 -1.108900
					CHANNELS 3 Xrotation Yrotation Zrotation
					End Site
					{
						OFFSET -1.415958 20.635269 0.000000
					}
				}
			}
		}
	}
	JOINT newVegas:Spine
	{
		OFFSET 0.000000 10.199997 -0.299500
		CHANNELS 3 Xrotation Yrotation Zrotation
		JOINT newVegas:Spine1
		{
			OFFSET 0.000000 11.900002 -1.516600
			CHANNELS 3 Xrotation Yrotation Zrotation
			JOINT newVegas:Spine2
			{
				OFFSET 0.000000 13.600006 -2.842500
				CHANNELS 3 Xrotation Yrotation Zrotation
				JOINT newVegas:Neck
				{
					OFFSET 0.000000 9.624100 -2.890100
					CHANNELS 3 Xrotation Yrotation Zrotation
					JOINT newVegas:Head
					{
						OFFSET 0.000000 14.068802 -1.351900
						CHANNELS 3 Xrotation Yrotation Zrotation
						JOINT newVegas:Hair_Back
						{
							OFFSET 0.000000 3.231903 -17.524799
							CHANNELS 3 Xrotation Yrotation Zrotation
							End Site
							{
								OFFSET 0.000000 19.849884 0.000000
							}
						}
						JOINT newVegas:Hair_Front
						{
							OFFSET 0.000000 31.260406 4.573800
							CHANNELS 3 Xrotation Yrotation Zrotation
							JOINT newVegas:Hair_Front1
							{
								OFFSET 0.000000 2.284103 11.993300
								CHANNELS 3 Xrotation Yrotation Zrotation
								JOINT newVegas:Hair_Front2
								{
									OFFSET 0.000000 2.284103 11.993300
									CHANNELS 3 Xrotation Yrotation Zrotation
									End Site
									{
										OFFSET 0.000000 12.208862 0.000000
									}
								}
							}
						}
						JOINT newVegas:Jowel
						{
							OFFSET 0.000000 -7.458206 6.864100
							CHANNELS 3 Xrotation Yrotation Zrotation
							End Site
							{
								OFFSET 0.000000 19.849884 0.000000
							}
						}
					}
				}
				JOINT newVegas:LeftShoulder
				{
					OFFSET 15.263000 10.923401 -0.547700
					CHANNELS 3 Xrotation Yrotation Zrotation
					JOINT newVegas:LeftArm
					{
						OFFSET 25.438599 -2.830597 -13.032500
						CHANNELS 3 Xrotation Yrotation Zrotation
						JOINT newVegas:LeftForeArm
						{
							OFFSET 29.960503 0.000000 0.000000
							CHANNELS 3 Xrotation Yrotation Zrotation
							JOINT newVegas:LeftHand
							{
								OFFSET 27.849251 0.000000 0.000000
								CHANNELS 3 Xrotation Yrotation Zrotation
								JOINT newVegas:LeftHandThumb1
								{
									OFFSET 4.487587 -3.305161 6.305391
									CHANNELS 3 Xrotation Yrotation Zrotation
									JOINT newVegas:LeftHandThumb2
									{
										OFFSET 5.480453 -3.164139 3.164143
										CHANNELS 3 Xrotation Yrotation Zrotation
										JOINT newVegas:LeftHandThumb3
										{
											OFFSET 5.159721 -2.978973 2.978967
											CHANNELS 3 Xrotation Yrotation Zrotation
											End Site
											{
												OFFSET 2.494507 5.926697 1.738678
											}
										}
									}
								}
								JOINT newVegas:LeftHandIndex1
								{
									OFFSET 18.578728 -0.527832 5.208049
									CHANNELS 3 Xrotation Yrotation Zrotation
									JOINT newVegas:LeftHandIndex2
									{
										OFFSET 3.192009 0.000000 0.000000
										CHANNELS 3 Xrotation Yrotation Zrotation
										JOINT newVegas:LeftHandIndex3
										{
											OFFSET 3.835129 0.000000 0.000000
											CHANNELS 3 Xrotation Yrotation Zrotation
											End Site
											{
												OFFSET -0.034599 3.816971 0.371180
											}
										}
									}
								}
								JOINT newVegas:LeftHandMiddle1
								{
									OFFSET 18.476105 0.000000 0.000000
									CHANNELS 3 Xrotation Yrotation Zrotation
									JOINT newVegas:LeftHandMiddle2
									{
										OFFSET 3.324875 0.000000 0.000000
										CHANNELS 3 Xrotation Yrotation Zrotation
										JOINT newVegas:LeftHandMiddle3
										{
											OFFSET 4.596550 0.000000 0.000000
											CHANNELS 3 Xrotation Yrotation Zrotation
											End Site
											{
												OFFSET 0.057701 4.578827 0.399218
											}
										}
									}
								}
								JOINT newVegas:LeftHandRing1
								{
									OFFSET 17.732719 0.121887 -4.201567
									CHANNELS 3 Xrotation Yrotation Zrotation
									JOINT newVegas:LeftHandRing2
									{
										OFFSET 2.733170 0.000000 0.000000
										CHANNELS 3 Xrotation Yrotation Zrotation
										JOINT newVegas:LeftHandRing3
										{
											OFFSET 3.178268 0.000000 0.000000
											CHANNELS 3 Xrotation Yrotation Zrotation
											End Site
											{
												OFFSET 0.119102 3.170624 0.185394
											}
										}
									}
								}
								JOINT newVegas:LeftHandPinky1
								{
									OFFSET 15.989624 -0.606689 -7.535461
									CHANNELS 3 Xrotation Yrotation Zrotation
									JOINT newVegas:LeftHandPinky2
									{
										OFFSET 2.538986 0.000000 0.000000
										CHANNELS 3 Xrotation Yrotation Zrotation
										JOINT newVegas:LeftHandPinky3
										{
											OFFSET 2.593102 0.000000 0.000000
											CHANNELS 3 Xrotation Yrotation Zrotation
											End Site
											{
												OFFSET -0.150902 2.584198 0.152708
											}
										}
									}
								}
							}
							JOINT newVegas:Left_Sleeve
							{
								OFFSET 0.267448 -0.649796 0.577675
								CHANNELS 3 Xrotation Yrotation Zrotation
								End Site
								{
									OFFSET 0.000000 15.991241 0.000000
								}
							}
							JOINT newVegas:Left_CapeC
							{
								OFFSET 15.715958 -8.608795 -6.935905
								CHANNELS 3 Xrotation Yrotation Zrotation
								JOINT newVegas:Left_CapeC1
								{
									OFFSET 0.000000 -8.688499 0.000000
									CHANNELS 3 Xrotation Yrotation Zrotation
									End Site
									{
										OFFSET 0.000000 8.688499 0.000000
									}
								}
							}
						}
						JOINT newVegas:Left_CapeB
						{
							OFFSET 26.118385 -8.608795 -7.079235
							CHANNELS 3 Xrotation Yrotation Zrotation
							JOINT newVegas:Left_CapeB1
							{
								OFFSET 0.000000 -8.688499 0.000000
								CHANNELS 3 Xrotation Yrotation Zrotation
								End Site
								{
									OFFSET 0.000000 8.688499 0.000000
								}
							}
						}
						JOINT newVegas:Left_CapeA
						{
							OFFSET 5.115639 -8.608795 -10.395809
							CHANNELS 3 Xrotation Yrotation Zrotation
							JOINT newVegas:Left_CapeA1
							{
								OFFSET 0.000000 -8.688499 0.000000
								CHANNELS 3 Xrotation Yrotation Zrotation
								End Site
								{
									OFFSET 0.000000 8.688499 0.000000
								}
							}
						}
					}
				}
				JOINT newVegas:RightShoulder
				{
					OFFSET -15.263000 10.923401 -0.547700
					CHANNELS 3 Xrotation Yrotation Zrotation
					JOINT newVegas:RightArm
					{
						OFFSET -25.438599 -2.830597 -13.032500
						CHANNELS 3 Xrotation Yrotation Zrotation
						JOINT newVegas:RightForeArm
						{
							OFFSET -29.960503 0.000000 0.000000
							CHANNELS 3 Xrotation Yrotation Zrotation
							JOINT newVegas:RightHand
							{
								OFFSET -27.849251 0.000000 0.000000
								CHANNELS 3 Xrotation Yrotation Zrotation
								JOINT newVegas:RightHandThumb1
								{
									OFFSET -4.487587 -3.305161 6.305391
									CHANNELS 3 Xrotation Yrotation Zrotation
									JOINT newVegas:RightHandThumb2
									{
										OFFSET -5.480453 -3.164139 3.164143
										CHANNELS 3 Xrotation Yrotation Zrotation
										JOINT newVegas:RightHandThumb3
										{
											OFFSET -5.159721 -2.978973 2.978967
											CHANNELS 3 Xrotation Yrotation Zrotation
											End Site
											{
												OFFSET -2.494507 5.926697 1.738678
											}
										}
									}
								}
								JOINT newVegas:RightHandIndex1
								{
									OFFSET -18.578728 -0.527832 5.208049
									CHANNELS 3 Xrotation Yrotation Zrotation
									JOINT newVegas:RightHandIndex2
									{
										OFFSET -3.192009 0.000000 0.000000
										CHANNELS 3 Xrotation Yrotation Zrotation
										JOINT newVegas:RightHandIndex3
										{
											OFFSET -3.835129 0.000000 0.000000
											CHANNELS 3 Xrotation Yrotation Zrotation
											End Site
											{
												OFFSET 0.034599 3.816971 0.371180
											}
										}
									}
								}
								JOINT newVegas:RightHandMiddle1
								{
									OFFSET -18.476105 0.000000 0.000000
									CHANNELS 3 Xrotation Yrotation Zrotation
									JOINT newVegas:RightHandMiddle2
									{
										OFFSET -3.324875 0.000000 0.000000
										CHANNELS 3 Xrotation Yrotation Zrotation
										JOINT newVegas:RightHandMiddle3
										{
											OFFSET -4.596550 0.000000 0.000000
											CHANNELS 3 Xrotation Yrotation Zrotation
											End Site
											{
												OFFSET -0.057701 4.578827 0.399218
											}
										}
									}
								}
								JOINT newVegas:RightHandRing1
								{
									OFFSET -17.732719 0.121887 -4.201567
									CHANNELS 3 Xrotation Yrotation Zrotation
									JOINT newVegas:RightHandRing2
									{
										OFFSET -2.733170 0.000000 0.000000
										CHANNELS 3 Xrotation Yrotation Zrotation
										JOINT newVegas:RightHandRing3
										{
											OFFSET -3.178268 0.000000 0.000000
											CHANNELS 3 Xrotation Yrotation Zrotation
											End Site
											{
												OFFSET -0.119102 3.170624 0.185394
											}
										}
									}
								}
								JOINT newVegas:RightHandPinky1
								{
									OFFSET -15.989624 -0.606689 -7.535461
									CHANNELS 3 Xrotation Yrotation Zrotation
									JOINT newVegas:RightHandPinky2
									{
										OFFSET -2.538986 0.000000 0.000000
										CHANNELS 3 Xrotation Yrotation Zrotation
										JOINT newVegas:RightHandPinky3
										{
											OFFSET -2.593102 0.000000 0.000000
											CHANNELS 3 Xrotation Yrotation Zrotation
											End Site
											{
												OFFSET 0.150902 2.584198 0.152708
											}
										}
									}
								}
							}
							JOINT newVegas:Right_CapeC
							{
								OFFSET -15.715958 -8.608795 -6.935905
								CHANNELS 3 Xrotation Yrotation Zrotation
								JOINT newVegas:Right_CapeC1
								{
									OFFSET 0.000000 -8.688499 0.000000
									CHANNELS 3 Xrotation Yrotation Zrotation
									End Site
									{
										OFFSET 0.000000 8.688499 0.000000
									}
								}
							}
							JOINT newVegas:Right_Sleeve
							{
								OFFSET -0.267448 -0.649994 0.577675
								CHANNELS 3 Xrotation Yrotation Zrotation
								End Site
								{
									OFFSET 0.000000 15.991302 0.000000
								}
							}
						}
						JOINT newVegas:Right_CapeA
						{
							OFFSET -5.115540 -8.608795 -10.395824
							CHANNELS 3 Xrotation Yrotation Zrotation
							JOINT newVegas:Right_CapeA1
							{
								OFFSET 0.000000 -8.688499 0.000000
								CHANNELS 3 Xrotation Yrotation Zrotation
								End Site
								{
									OFFSET 0.000000 8.688499 0.000000
								}
							}
						}
						JOINT newVegas:Right_CapeB
						{
							OFFSET -26.118187 -8.608795 -7.079266
							CHANNELS 3 Xrotation Yrotation Zrotation
							JOINT newVegas:Right_CapeB1
							{
								OFFSET 0.000000 -8.688499 0.000000
								CHANNELS 3 Xrotation Yrotation Zrotation
								End Site
								{
									OFFSET 0.000000 8.688499 0.000000
								}
							}
						}
					}
				}
				JOINT newVegas:Left_Collar
				{
					OFFSET 18.625099 8.655502 8.828100
					CHANNELS 3 Xrotation Yrotation Zrotation
					JOINT newVegas:Left_Collar1
					{
						OFFSET 14.783401 10.540405 -1.259500
						CHANNELS 3 Xrotation Yrotation Zrotation
						End Site
						{
							OFFSET 0.000000 18.199875 0.000000
						}
					}
				}
				JOINT newVegas:Collar_Back
				{
					OFFSET 0.000000 15.630707 -20.132601
					CHANNELS 3 Xrotation Yrotation Zrotation
					End Site
					{
						OFFSET 0.000000 22.523010 0.000000
					}
				}
				JOINT newVegas:Left_Peck
				{
					OFFSET 17.239599 -5.132599 25.482599
					CHANNELS 3 Xrotation Yrotation Zrotation
					End Site
					{
						OFFSET 0.000000 22.523010 0.000000
					}
				}
				JOINT newVegas:Right_Peck
				{
					OFFSET -17.239599 -5.132202 25.482599
					CHANNELS 3 Xrotation Yrotation Zrotation
					End Site
					{
						OFFSET 0.000000 22.523010 0.000000
					}
				}
				JOINT newVegas:Right_Collar
				{
					OFFSET -18.625099 8.655792 8.828100
					CHANNELS 3 Xrotation Yrotation Zrotation
					JOINT newVegas:Right_Collar1
					{
						OFFSET -14.783401 10.539993 -1.259500
						CHANNELS 3 Xrotation Yrotation Zrotation
						End Site
						{
							OFFSET 0.000000 18.199631 0.000000
						}
					}
				}
			}
		}
		JOINT newVegas:Belly
		{
			OFFSET 0.000000 -6.540398 9.014299
			CHANNELS 3 Xrotation Yrotation Zrotation
			End Site
			{
				OFFSET 0.000000 11.566666 0.000000
			}
		}
	}
	JOINT newVegas:ElvisFacialAnim_Joint
	{
		OFFSET 1.000000 -95.330101 -8.825800
		CHANNELS 3 Xrotation Yrotation Zrotation
		End Site
		{
			OFFSET 0.000000 35.315800 0.000000
		}
	}
}
MOTION
Frames: 4
Frame Time: 0.016667
-0.514343 88.638779 8.770252 -12.953371 -1.231295 -4.988203 -0.000000 0.000000 0.000000 -37.899968 18.769403 12.514430 46.050208 -8.884297 10.640153 1.430346 -7.967949 -1.494029 -0.000000 -0.000000 0.000000 0.000000 0.000000 0.000000 -25.593296 -36.482363 -2.916195 39.447928 9.466410 -10.321732 -1.366628 7.582965 -5.705923 0.000000 0.000000 0.000000 0.000000 -0.000000 -0.000001 5.921211 -0.685945 2.622545 9.106088 -0.324703 -0.848842 9.111603 -0.022998 -0.851798 6.174682 0.196268 0.359963 6.174679 0.196268 0.359963 0.000001 0.000000 0.000000 6.174686 0.196267 0.359963 6.174694 0.196264 0.359963 -0.000000 0.000000 0.000000 0.000001 0.000000 0.000000 0.689292 3.725265 -11.385281 59.736882 -63.314658 -9.099229 0.000001 -20.467447 0.000022 -19.310948 9.265450 -7.550702 21.734275 5.841488 -2.497393 -16.162780 18.936365 19.036138 0.000001 -0.000002 -0.000003 0.152624 1.444577 -12.061576 0.086625 1.091006 -9.079577 0.000001 0.000000 0.000002 0.152215 1.442686 -12.045588 0.086942 1.092929 -9.095548 0.000000 0.000000 -0.000001 0.152624 1.444565 -12.061577 0.086628 1.091020 -9.079577 -0.000001 -0.000002 0.000003 0.985189 5.412812 -11.600957 0.078389 -2.964039 -9.583906 0.000001 0.000002 0.000001 -0.000001 0.000001 0.000001 -0.000001 0.000001 0.000001 -0.000001 0.000001 0.000000 -0.000001 0.000002 0.000001 -0.000001 0.000002 0.000000 -0.000001 0.000002 0.000001 -0.000001 0.000002 0.000001 1.381297 0.020057 11.778361 9.839219 40.445344 56.843232 -0.000006 26.830950 0.000009 35.425702 -10.440553 11.800204 -0.389744 -6.638714 -15.665602 8.907262 -22.771347 0.157760 0.000000 0.000000 0.000001 0.174548 -1.551239 12.839277 0.140307 -1.392646 11.506923 -0.000000 0.000001 -0.000001 0.174548 -1.551237 12.839279 0.140303 -1.392632 11.506928 -0.000003 0.000000 -0.000001 0.174545 -1.551233 12.839281 0.140312 -1.392646 11.506929 -0.000000 -0.000001 0.000000 0.174541 -1.551227 12.839284 0.140302 -1.392646 11.506923 0.000000 0.000002 0.000000 -0.000003 0.000001 -0.000000 -0.000003 0.000000 0.000000 -0.000003 0.000001 -0.000000 0.000000 0.000000 0.000001 0.000001 0.000000 0.000001 0.000000 0.000000 0.000001 0.000001 -0.000000 0.000001 0.000001 -0.000000 -0.000000 0.000001 -0.000000 -0.000000 0.000001 -0.000000 -0.000000 0.000001 -0.000000 -0.000000 0.000001 -0.000000 -0.000000 0.000001 -0.000000 -0.000000 0.000001 -0.000000 -0.000000 0.000000 0.000000 -0.000000 -0.000000 0.000000 0.000000 
-0.514945 88.642471 8.776268 -12.937972 -1.190045 -4.987661 0.000000 -0.000000 0.000000 -37.906204 18.754504 12.494881 46.033303 -8.886011 10.639630 1.445253 -7.975865 -1.483567 -0.000000 -0.000000 0.000000 -0.000000 0.000000 -0.000000 -25.587277 -36.513102 -2.925544 39.436290 9.467499 -10.321312 -1.381274 7.573365 -5.699325 0.000000 -0.000000 -0.000000 -0.000000 0.000001 -0.000000 5.917276 -0.686201 2.626380 9.101770 -0.326363 -0.858133 9.107326 -0.025739 -0.860712 6.170241 0.193653 0.366023 6.170239 0.193653 0.366023 -0.000001 0.000000 -0.000000 6.170322 0.193652 0.366022 6.170218 0.193654 0.366023 0.000000 0.000000 -0.000000 -0.000001 0.000000 -0.000000 0.689442 3.728123 -11.389586 59.635495 -63.287085 -9.181455 -0.000005 -20.479462 -0.000011 -19.271228 9.284308 -7.567686 21.734278 5.841490 -2.497391 -16.162784 18.936365 19.036135 0.000002 0.000001 -0.000001 0.152629 1.444577 -12.061577 0.086625 1.091004 -9.079580 0.000002 -0.000000 0.000001 0.152218 1.442686 -12.045588 0.086941 1.092928 -9.095549 0.000001 -0.000000 0.000000 0.152631 1.444567 -12.061579 0.086626 1.091018 -9.079575 -0.000001 -0.000001 -0.000001 0.985191 5.412808 -11.600956 0.078389 -2.964039 -9.583906 -0.000000 -0.000003 0.000001 0.000000 -0.000000 0.000001 0.000000 -0.000000 0.000001 0.000000 -0.000000 0.000001 -0.000001 -0.000001 0.000000 -0.000000 -0.000001 -0.000000 -0.000001 -0.000001 0.000000 -0.000000 -0.000001 0.000000 1.380292 0.014381 11.778444 9.844057 40.462536 56.845342 0.000010 26.845932 -0.000008 35.401178 -10.448983 11.800073 -0.389743 -6.638712 -15.665602 8.907261 -22.771349 0.157756 0.000001 -0.000003 -0.000003 0.174547 -1.551241 12.839276 0.140308 -1.392644 11.506923 0.000000 0.000002 -0.000002 0.174548 -1.551237 12.839279 0.140307 -1.392631 11.506926 -0.000000 0.000001 -0.000000 0.174544 -1.551233 12.839282 0.140312 -1.392644 11.506929 -0.000002 -0.000001 -0.000003 0.174545 -1.551229 12.839287 0.140306 -1.392648 11.506923 0.000000 0.000002 0.000000 -0.000001 -0.000001 0.000001 -0.000000 -0.000001 -0.000000 -0.000001 -0.000001 0.000001 -0.000003 0.000001 0.000001 -0.000002 0.000001 0.000001 -0.000003 0.000001 0.000001 -0.000002 0.000001 0.000001 0.000001 -0.000000 0.000000 0.000001 -0.000000 0.000000 0.000001 -0.000000 0.000000 0.000001 -0.000000 0.000000 0.000001 -0.000000 0.000000 0.000001 -0.000000 0.000000 0.000001 -0.000000 0.000000 0.000001 0.000000 -0.000000 0.000000 -0.000000 0.000000 
-0.515823 88.645767 8.782255 -12.924208 -1.152820 -4.987847 0.000000 -0.000000 -0.000001 -37.911942 18.740685 12.478066 46.019083 -8.887030 10.639179 1.457591 -7.983604 -1.473080 -0.000000 0.000000 0.000000 0.000000 0.000001 -0.000000 -25.581270 -36.548281 -2.936066 39.425430 9.468573 -10.320777 -1.395306 7.570172 -5.695648 0.000000 -0.000002 -0.000000 -0.000000 -0.000001 -0.000000 5.914068 -0.686757 2.629708 9.098276 -0.328489 -0.866142 9.103876 -0.028798 -0.868353 6.165742 0.191221 0.371938 6.165728 0.191223 0.371937 -0.000002 0.000000 0.000000 6.165802 0.191224 0.371936 6.165728 0.191217 0.371938 0.000001 -0.000000 0.000000 -0.000002 0.000000 0.000000 0.689444 3.729465 -11.390502 59.511349 -63.261929 -9.286493 0.000005 -20.488100 0.000040 -19.229269 9.299526 -7.586347 21.734280 5.841488 -2.497394 -16.162780 18.936367 19.036135 0.000001 -0.000001 -0.000003 0.152625 1.444577 -12.061577 0.086624 1.091006 -9.079580 -0.000001 -0.000000 -0.000004 0.152220 1.442687 -12.045590 0.086940 1.092929 -9.095550 -0.000002 0.000000 -0.000002 0.152626 1.444566 -12.061580 0.086626 1.091020 -9.079576 -0.000003 -0.000002 0.000003 0.985188 5.412811 -11.600958 0.078394 -2.964037 -9.583907 0.000003 -0.000002 0.000002 -0.000001 -0.000000 0.000002 -0.000001 -0.000000 0.000002 -0.000001 -0.000000 0.000002 -0.000001 -0.000001 0.000000 -0.000001 -0.000001 -0.000000 -0.000001 -0.000001 0.000000 -0.000001 -0.000001 0.000000 1.379344 0.009006 11.778237 9.848082 40.481169 56.846671 -0.000010 26.857863 -0.000003 35.377822 -10.457194 11.798768 -0.389744 -6.638713 -15.665599 8.907259 -22.771354 0.157756 0.000001 0.000001 0.000001 0.174547 -1.551239 12.839277 0.140308 -1.392645 11.506920 -0.000002 0.000001 -0.000001 0.174549 -1.551237 12.839278 0.140307 -1.392631 11.506928 -0.000000 -0.000000 0.000002 0.174545 -1.551234 12.839283 0.140312 -1.392648 11.506929 0.000001 -0.000003 -0.000001 0.174543 -1.551229 12.839285 0.140305 -1.392644 11.506920 0.000000 0.000003 -0.000000 0.000001 -0.000000 0.000000 0.000004 -0.000000 0.000001 0.000001 -0.000000 0.000000 -0.000002 0.000002 0.000001 -0.000002 0.000002 0.000000 -0.000002 0.000002 0.000001 -0.000001 0.000002 0.000000 0.000000 -0.000000 -0.000000 0.000000 -0.000000 -0.000000 0.000000 -0.000000 -0.000000 0.000000 -0.000000 -0.000000 0.000000 -0.000000 -0.000000 0.000000 -0.000000 -0.000000 0.000000 -0.000000 -0.000000 -0.000000 0.000000 -0.000000 0.000000 -0.000000 -0.000001 
-0.517057 88.649063 8.788437 -12.911131 -1.117067 -4.988366 0.000001 -0.000000 0.000000 -37.917501 18.727530 12.462853 46.006047 -8.887935 10.638761 1.468682 -7.991466 -1.462794 0.000000 0.000000 0.000000 0.000000 -0.000001 0.000000 -25.574158 -36.582251 -2.945075 39.414809 9.469556 -10.320243 -1.409343 7.566387 -5.692327 0.000000 0.000000 0.000000 -0.000000 0.000000 0.000000 5.911163 -0.687575 2.633056 9.095247 -0.331065 -0.873291 9.100893 -0.032251 -0.875140 6.161284 0.188771 0.377854 6.161281 0.188772 0.377854 -0.000001 0.000000 0.000000 6.161287 0.188772 0.377855 6.161298 0.188772 0.377853 -0.000001 0.000000 0.000000 -0.000001 0.000000 0.000000 0.689395 3.730280 -11.390356 59.372171 -63.239137 -9.406509 0.000010 -20.492453 0.000013 -19.183922 9.314073 -7.606387 21.734278 5.841488 -2.497397 -16.162779 18.936363 19.036135 0.000003 -0.000002 -0.000001 0.152628 1.444577 -12.061580 0.086625 1.091006 -9.079578 -0.000002 0.000001 -0.000002 0.152219 1.442686 -12.045590 0.086943 1.092929 -9.095549 0.000001 -0.000000 -0.000003 0.152628 1.444565 -12.061579 0.086625 1.091023 -9.079575 -0.000002 -0.000002 0.000001 0.985192 5.412811 -11.600958 0.078393 -2.964038 -9.583904 -0.000001 -0.000002 0.000002 -0.000001 -0.000000 0.000001 -0.000001 -0.000000 0.000001 -0.000001 -0.000001 0.000001 -0.000001 0.000000 -0.000000 -0.000001 -0.000001 -0.000001 -0.000001 0.000000 -0.000000 -0.000001 -0.000001 -0.000000 1.378496 0.004378 11.777020 9.850227 40.499552 56.849000 0.000016 26.868055 -0.000001 35.355856 -10.464783 11.797782 -0.389743 -6.638713 -15.665604 8.907263 -22.771356 0.157759 0.000002 -0.000003 0.000001 0.174547 -1.551240 12.839279 0.140308 -1.392646 11.506921 0.000002 0.000001 0.000001 0.174549 -1.551238 12.839279 0.140306 -1.392631 11.506928 0.000000 0.000000 -0.000001 0.174546 -1.551234 12.839283 0.140308 -1.392643 11.506928 0.000000 -0.000001 0.000001 0.174544 -1.551230 12.839287 0.140302 -1.392644 11.506924 0.000000 -0.000000 -0.000000 0.000004 -0.000001 0.000002 0.000004 -0.000001 0.000001 0.000004 -0.000001 0.000001 0.000003 0.000000 0.000000 0.000003 0.000000 0.000000 0.000003 0.000000 0.000000 0.000003 -0.000000 0.000000 0.000001 0.000000 0.000000 0.000001 0.000000 0.000000 0.000001 0.000000 0.000000 0.000001 0.000000 0.000000 0.000001 0.000000 0.000000 0.000001 0.000000 0.000000 0.000001 0.000000 0.000000 -0.000000 0.000000 -0.000000 0.000001 -0.000000 0.000000 
